<svg xmlns="http://www.w3.org/2000/svg" width="200" height="57.619" viewBox="0 0 52.917 15.245"><path d="M-259.186 274.575c63.563-11.228 116.063-20.52 116.666-20.648l1.096-.233-60.01-71.38c-33.005-39.259-60.01-71.532-60.01-71.718 0-.353 61.966-170.992 62.314-171.6.116-.202 42.286 72.602 102.221 176.483C-40.796 212.735 5.467 292.922 5.897 293.674l.781 1.366-190.717-.025-190.717-.024 115.57-20.416zm731.379-17.263c-29.031-1.861-45.916-18.392-50.39-49.334-1.19-8.231-1.195-8.445-1.317-61.88l-.118-51.718H446.065l.101 50.024c.091 45.085.149 50.371.58 53.543 1.75 12.872 5.232 21.527 11.16 27.74 4.746 4.973 10.301 7.884 17.991 9.43 3.628.728 13.948.73 17.256.002 7.796-1.715 14.044-5.108 19.556-10.618 6.282-6.28 10.93-15.19 13.179-25.266l.758-3.395.084-50.448.085-50.447h26.234v158.609h-25.964v-12.582c0-8.55-.094-12.552-.292-12.485-.161.053-.828 1.073-1.482 2.266-4.474 8.16-11.927 15.62-20.095 20.116-9.79 5.388-19.609 7.304-33.023 6.444zm294.666-.128c-10.248-.77-21.038-4.293-29.858-9.749-18.589-11.499-29.588-30.452-32.808-56.535-1.114-9.026-1.248-21.15-.318-28.819 2.077-17.137 8.811-33.96 18.4-45.97 2.459-3.079 8.036-8.655 11.114-11.113 8.314-6.638 18.039-11.28 28.364-13.539 6.015-1.316 16.61-1.934 23-1.341 16.056 1.488 30.772 9.047 40.773 20.945 10.162 12.089 15.747 28.98 16.46 49.78.112 3.26.14 8.975.06 12.7l-.142 6.774-56.233.07-56.233.072v2.51c0 7.639 1.857 16.34 5.068 23.742 2.769 6.384 7.535 13.355 11.437 16.728 8.002 6.917 17.794 11.057 28.51 12.054 3.973.369 14.099-.02 18.626-.716 12.918-1.985 25.2-7.052 35.118-14.488 1.167-.874 2.283-1.692 2.481-1.816.29-.182.358 2.104.351 11.712l-.009 11.938-2.657 1.644c-11.22 6.939-24.073 11.395-37.682 13.063-4.062.497-18.965.72-23.822.354zm48.94-100.685c0-12.796-5.393-27.011-13.024-34.33-5.446-5.224-12.03-8.417-19.856-9.629-3.702-.573-11.506-.353-15.41.436-8.252 1.668-15.078 5.296-21.031 11.178-6.266 6.192-10.964 13.712-13.918 22.28-1.062 3.08-2.305 8.139-2.69 10.952l-.184 1.34h86.112zM53.01 253.2c.066-.194 19.161-50.359 42.434-111.477L137.759 30.6l13.596-.001 13.596-.001 1.128 2.893c3.447 8.84 84.71 219.821 84.71 219.931 0 .072-6.508.13-14.464.13l-14.463-.004-11.713-31.183-11.712-31.182-47.159-.001H104.12l-.41 1.058c-.225.582-5.229 14.613-11.12 31.18l-10.71 30.123-14.494.005c-11.473.004-14.469-.069-14.374-.348zm136.818-85.815c0-.05-7.882-21.417-17.515-47.484-18.022-48.766-19.03-51.7-20.455-59.53-.667-3.671-1.005-3.773-1.401-.423-.284 2.394-1.512 7.752-2.46 10.724-.469 1.475-8.585 23.75-18.034 49.5-9.45 25.751-17.181 46.928-17.181 47.061 0 .133 17.335.242 38.523.242 21.188 0 38.523-.04 38.523-.09zm69.71 82.106v-4.061l46.984-64.59 46.984-64.589-42.54-.14-42.539-.142-.074-10.795-.074-10.795h123.056v7.292l-46.99 64.942c-25.845 35.718-46.99 65.001-46.99 65.075 0 .073 20.891.133 46.426.133h46.425v21.731H259.538zm344.78 3.873c-.103-.103-.187-35.917-.187-79.586V94.38H629.814v16.369c0 9.003.11 16.369.243 16.369.134 0 .759-1.474 1.389-3.275 2.887-8.254 7.894-15.966 14.344-22.095 5.811-5.522 12.453-8.824 20.29-10.087 2.2-.355 4.063-.423 8.466-.308 5.53.144 8.42.548 11.783 1.647l1.058.346v26.658l-3.034-1.519c-5.359-2.683-10.647-3.744-17.004-3.414-4.137.215-6.852.747-10.16 1.988-6.805 2.554-12.325 7.062-16.182 13.215-5.584 8.909-9.566 20.36-10.74 30.883-.211 1.889-.336 17.27-.385 47.594l-.073 44.802h-12.65c-6.959 0-12.736-.084-12.84-.188zm-1092.387-.557c0-.1 28.276-49.187 62.836-109.08l62.837-108.897 73.229-61.454c40.276-33.8 73.337-61.495 73.47-61.545.132-.051-.398 1.283-1.178 2.963-.78 1.68-36.562 78.43-79.516 170.554l-78.098 167.499-56.79.071c-31.235.04-56.79-.011-56.79-.111z" style="fill:#0089d6;fill-opacity:1;stroke-width:.28222221" transform="translate(19.416 3.508) scale(.03978)"/></svg>