<svg xmlns="http://www.w3.org/2000/svg" xmlns:xlink="http://www.w3.org/1999/xlink" viewBox="0 0 164.07 22.92"><defs><style>.cls-1{fill:url(#Unbenannter_Verlauf_2);}</style><linearGradient id="Unbenannter_Verlauf_2" x1="40.66" y1="56.68" x2="118.91" y2="-36.57" gradientUnits="userSpaceOnUse"><stop offset="0" stop-color="#555598"/><stop offset="0.5" stop-color="#e64988"/><stop offset="1" stop-color="#f08b33"/></linearGradient></defs><title>isolutions_wortmarke_logo_positiv_passion_rgb</title><g id="Ebene_2" data-name="Ebene 2"><g id="logo_isolutions"><path class="cls-1" d="M0,22.56v-15H4.86v15ZM21.62,18a4.23,4.23,0,0,1-1.79,3.5,7,7,0,0,1-2.29,1.06,12.22,12.22,0,0,1-3.27.39q-.56,0-1.22-.07t-1.33-.18q-.67-.11-1.28-.26t-1.07-.29V18.46a9.11,9.11,0,0,0,1.27.59q.7.26,1.42.46a13.15,13.15,0,0,0,1.4.31,7.76,7.76,0,0,0,1.22.11,4.33,4.33,0,0,0,1.1-.12,2.15,2.15,0,0,0,.7-.31,1.14,1.14,0,0,0,.38-.45,1.24,1.24,0,0,0,.12-.52,1.57,1.57,0,0,0-.12-.64,1.33,1.33,0,0,0-.46-.52,4.39,4.39,0,0,0-.93-.48q-.59-.23-1.53-.51a13.52,13.52,0,0,1-1.77-.66,6.27,6.27,0,0,1-1.46-.91,4,4,0,0,1-1-1.22A3.48,3.48,0,0,1,9.36,12,3.93,3.93,0,0,1,9.85,10a4.51,4.51,0,0,1,1.4-1.51,7,7,0,0,1,2.22-1,11.58,11.58,0,0,1,2.94-.34q.57,0,1.16.06t1.14.15l1.05.21.86.21v3.5a9.48,9.48,0,0,0-2.08-.83,8.47,8.47,0,0,0-2.21-.3,3.26,3.26,0,0,0-1.68.35,1.15,1.15,0,0,0-.58,1.05,1.3,1.3,0,0,0,.14.62,1.45,1.45,0,0,0,.44.48,3.77,3.77,0,0,0,.78.42q.48.2,1.14.42,1,.32,1.91.7a7.43,7.43,0,0,1,1.61.89,4.16,4.16,0,0,1,1.11,1.21A3.14,3.14,0,0,1,21.62,18Zm19.74-3.12a9.41,9.41,0,0,1-.56,3.31,6.92,6.92,0,0,1-1.63,2.55,7.34,7.34,0,0,1-2.61,1.63,10.95,10.95,0,0,1-6.94,0,7.15,7.15,0,0,1-2.57-1.57,6.75,6.75,0,0,1-1.61-2.46,8.91,8.91,0,0,1-.56-3.23,8.87,8.87,0,0,1,.62-3.43,6.8,6.8,0,0,1,1.73-2.48A7.33,7.33,0,0,1,29.88,7.7a10.72,10.72,0,0,1,3.38-.51,9.62,9.62,0,0,1,3.57.61,7.06,7.06,0,0,1,2.53,1.66,6.79,6.79,0,0,1,1.5,2.44A8.72,8.72,0,0,1,41.36,14.85Zm-5,.09a5.2,5.2,0,0,0-.81-3.08,2.8,2.8,0,0,0-2.43-1.12,3.34,3.34,0,0,0-1.36.27,2.82,2.82,0,0,0-1.05.81,3.8,3.8,0,0,0-.68,1.35,6.68,6.68,0,0,0-.24,1.9,6.63,6.63,0,0,0,.26,2,3.81,3.81,0,0,0,.7,1.35,2.63,2.63,0,0,0,1.07.77,3.67,3.67,0,0,0,1.34.24,2.77,2.77,0,0,0,2.4-1.12A5.63,5.63,0,0,0,36.41,14.94Zm9.33,7.62V.35H50.6V22.56Zm19.43,0V20.49a6.63,6.63,0,0,1-.73.89,4.92,4.92,0,0,1-1,.78,5.33,5.33,0,0,1-2.83.77,6,6,0,0,1-2.37-.43,4.28,4.28,0,0,1-1.66-1.25,5.36,5.36,0,0,1-1-2,10,10,0,0,1-.32-2.65V7.56h4.85V16.2a5.22,5.22,0,0,0,.18,1.45,2.79,2.79,0,0,0,.49,1,1.84,1.84,0,0,0,.76.56,2.64,2.64,0,0,0,1,.18,2.6,2.6,0,0,0,1.05-.21,2.21,2.21,0,0,0,.83-.63,3.11,3.11,0,0,0,.54-1,4.4,4.4,0,0,0,.2-1.38V7.56H70v15Zm20.91-.19a4.27,4.27,0,0,1-.64.21,8.83,8.83,0,0,1-.92.18q-.52.07-1.11.12t-1.2.05a7.56,7.56,0,0,1-2.54-.36,3.56,3.56,0,0,1-1.55-1,3.69,3.69,0,0,1-.77-1.6,9.62,9.62,0,0,1-.21-2.1v-7H74V7.56h3.16V4.35L82,3v4.6h4.09v3.27H82V17a2.56,2.56,0,0,0,.52,1.79,2.13,2.13,0,0,0,1.62.55,3.92,3.92,0,0,0,.93-.12,5.13,5.13,0,0,0,1-.37Zm11.12.19v-15H89.73v3.27h2.61V22.56ZM163.86,1.41a2.26,2.26,0,0,0-.57-.75,2.64,2.64,0,0,0-.88-.49A3.46,3.46,0,0,0,161.28,0a3.55,3.55,0,0,0-1.11.17,2.62,2.62,0,0,0-.89.48,2.17,2.17,0,0,0-.78,1.71,2.21,2.21,0,0,0,.2.93,2.36,2.36,0,0,0,.56.76,2.61,2.61,0,0,0,.88.52,3.33,3.33,0,0,0,1.15.19,3.48,3.48,0,0,0,1.16-.18,2.59,2.59,0,0,0,.88-.51,2.17,2.17,0,0,0,.55-.76,2.37,2.37,0,0,0,.19-1A2.17,2.17,0,0,0,163.86,1.41ZM117.64,14.85a9.41,9.41,0,0,1-.56,3.31,6.92,6.92,0,0,1-1.63,2.55,7.34,7.34,0,0,1-2.61,1.63,10.95,10.95,0,0,1-6.94,0,7.15,7.15,0,0,1-2.57-1.57,6.75,6.75,0,0,1-1.61-2.46,8.91,8.91,0,0,1-.56-3.23,8.87,8.87,0,0,1,.62-3.43,6.8,6.8,0,0,1,1.73-2.48,7.33,7.33,0,0,1,2.64-1.51,10.72,10.72,0,0,1,3.38-.51,9.62,9.62,0,0,1,3.57.61,7.06,7.06,0,0,1,2.53,1.66,6.79,6.79,0,0,1,1.5,2.44A8.72,8.72,0,0,1,117.64,14.85Zm-5,.09a5.2,5.2,0,0,0-.81-3.08,2.8,2.8,0,0,0-2.43-1.12,3.34,3.34,0,0,0-1.36.27,2.82,2.82,0,0,0-1.05.81,3.8,3.8,0,0,0-.68,1.35,6.68,6.68,0,0,0-.24,1.9,6.63,6.63,0,0,0,.26,2,3.81,3.81,0,0,0,.7,1.35,2.63,2.63,0,0,0,1.07.77,3.67,3.67,0,0,0,1.34.24,2.77,2.77,0,0,0,2.4-1.12A5.63,5.63,0,0,0,112.69,14.94Zm19.12,7.62V14.22a4.83,4.83,0,0,0-.56-2.67,2,2,0,0,0-1.81-.82,2.34,2.34,0,0,0-1.08.25,2.47,2.47,0,0,0-.83.69,3.29,3.29,0,0,0-.53,1,4.23,4.23,0,0,0-.19,1.3v8.55h-4.86v-15h4.86V9.68a5.59,5.59,0,0,1,2-1.84,5.69,5.69,0,0,1,2.78-.65,6.09,6.09,0,0,1,2.11.34,3.94,3.94,0,0,1,1.6,1.09,5.06,5.06,0,0,1,1,1.92,9.73,9.73,0,0,1,.36,2.83v9.18ZM153.69,18a4.23,4.23,0,0,1-1.79,3.5,7,7,0,0,1-2.29,1.06,12.22,12.22,0,0,1-3.27.39q-.56,0-1.22-.07t-1.33-.18q-.67-.11-1.28-.26t-1.07-.29V18.46a9.11,9.11,0,0,0,1.27.59q.7.26,1.42.46a13.15,13.15,0,0,0,1.4.31,7.76,7.76,0,0,0,1.22.11,4.33,4.33,0,0,0,1.1-.12,2.15,2.15,0,0,0,.7-.31,1.14,1.14,0,0,0,.38-.45,1.24,1.24,0,0,0,.12-.52,1.57,1.57,0,0,0-.12-.64,1.33,1.33,0,0,0-.46-.52,4.39,4.39,0,0,0-.93-.48q-.59-.23-1.53-.51a13.52,13.52,0,0,1-1.77-.66,6.27,6.27,0,0,1-1.46-.91,4,4,0,0,1-1-1.22,3.48,3.48,0,0,1-.36-1.62,3.93,3.93,0,0,1,.49-1.95,4.51,4.51,0,0,1,1.4-1.51,7,7,0,0,1,2.22-1,11.58,11.58,0,0,1,2.94-.34q.57,0,1.16.06t1.14.15l1.05.21.86.21v3.5a9.48,9.48,0,0,0-2.08-.83,8.47,8.47,0,0,0-2.21-.3,3.26,3.26,0,0,0-1.68.35,1.15,1.15,0,0,0-.58,1.05,1.3,1.3,0,0,0,.14.62,1.45,1.45,0,0,0,.44.48,3.77,3.77,0,0,0,.78.42q.48.2,1.14.42,1,.32,1.91.7a7.43,7.43,0,0,1,1.61.89,4.16,4.16,0,0,1,1.11,1.21A3.14,3.14,0,0,1,153.69,18Z"/></g></g></svg>